- 
http://www.Speed.Cd      fast  and The Hottest Private Tracker on the net

Please Seed back to make the speed Faster!!!

------------------nfo--------------------------
-                                                                                                     
       
     
     
       
       
     
     
                                         
                                         
                EXVID                    
                                         
         
                                         
         Filled the Archives             
                                         
         
                                         
                With:                    
                                         
         
                                         
                                    
     E240                           
                                    
     SP               (C) 2009      
                                         
     
     
     
                                                                                  
                                                                                   
                  Hancock.2008.PROPER.DVDRip.XviD-EXViD                             
                                                                                   
                                                                                  
     
                                                                                               
EXViD aims to iNTERNAL those releases which have been lost in the archives.
EXViD aims to PRE non-internal releases which have poor sources and are likely skipped by others. 
http://www.imdb.com/title/tt0448157/
Subtitles: EN, ES, CS, HU, PL, TR, NL, AR, BG, HR, ET, EL, IW, HI, IS, LT, PT, RO, SR, SK, SL
Date: 2011.10

Director: Peter Berg

Genre: Action | Crime | Fantasy | Sci-Fi

Plot:
A hard-living superhero who has fallen out of favor with the public enters into a questionable
relationship with the wife of the public relations professional who's trying to repair his
image.

Cast:
Will Smith 	 ... 	 John Hancock
Charlize Theron 	 ... 	 Mary
Jason Bateman 	 ... 	 Ray
Jae Head 	 ... 	 Aaron
Eddie Marsan 	 ... 	 Red
David Mattey 	 ... 	 Man Mountain
Maetrix Fitten 	 ... 	 Matrix
Thomas Lennon 	 ... 	 Mike
Johnny Galecki 	 ... 	 Jeremy
Hayley Marie Norman 	 ... 	 Hottie
Dorothy Cecchi 	 ... 	 Woman in Dive Bar
Michelle Lemon 	 ... 	 Girl at Bus Bench
Akiva Goldsman 	 ... 	 Executive
Michael Mann 	 ... 	 Executive
Brad Leland 	 ... 	 Executive

Stats:
Format                           : AVI
Format/Info                      : Audio Video Interleave
File size                        : 701 MiB
Duration                         : 1h 28mn
Overall bit rate                 : 1 107 Kbps
Writing application              : Nandub v1.0rc2
Writing library                  : Nandub build 1852/release

Video
ID                               : 0
Format                           : MPEG-4 Visual
Format profile                   : Advanced Simple@L5
Format settings, BVOP            : 2
Format settings, QPel            : No
Format settings, GMC             : No warppoints
Format settings, Matrix          : Default (H.263)
Codec ID                         : XVID
Codec ID/Hint                    : XviD
Duration                         : 1h 28mn
Bit rate                         : 971 Kbps
Width                            : 640 pixels
Height                           : 272 pixels
Display aspect ratio             : 2.35:1
Frame rate                       : 25.000 fps
Color space                      : YUV
Chroma subsampling               : 4:2:0
Bit depth                        : 8 bits
Scan type                        : Progressive
Compression mode                 : Lossy
Bits/(Pixel*Frame)               : 0.223
Stream size                      : 614 MiB (88%)
Writing library                  : XviD 64

Audio
ID                               : 1
Format                           : MPEG Audio
Format version                   : Version 1
Format profile                   : Layer 3
Mode                             : Joint stereo
Mode extension                   : MS Stereo
Codec ID                         : 55
Codec ID/Hint                    : MP3
Duration                         : 1h 28mn
Bit rate mode                    : Variable
Bit rate                         : 128 Kbps
Channel(s)                       : 2 channels
Sampling rate                    : 48.0 KHz
Compression mode                 : Lossy
Stream size                      : 77.9 MiB (11%)
Alignment                        : Aligned on interleaves
Interleave, duration             : 24 ms (0.60 video frame)
Interleave, preload duration     : 143 ms
Writing library                  : LAME3.98r
Encoding settings                : -m j -V 4 -q 3 -lowpass 17 --abr 128




Release notes:
ALLiANCE rip was nuked for ghosting frames (subs are also bad). ARROW did a different version.

enjoy!

Looking for:
75TB+ Archives
DUTCH/FLEMiSH Archives
                                                                                                    
Greets: CRBS EPiSODE FiCO FLS iLS KLASSiGER LiPSYNC MADE NODLABS RUNNER SPRiNTER      
   

                                                                    ASCII DONE BY XX^NFO 2oo9